<svg width="40" height="40" viewBox="0 0 40 40" fill="none" xmlns="http://www.w3.org/2000/svg">
<path d="M8.33333 3.33334C6.495 3.33334 5 4.82834 5 6.66668V26.6667C5 28.505 6.495 30 8.33333 30H14.31L20 35.69L25.69 30H31.6667C33.505 30 35 28.505 35 26.6667V6.66668C35 4.82834 33.505 3.33334 31.6667 3.33334H8.33333ZM31.6667 26.6667H24.31L20 30.9767L15.69 26.6667H8.33333V6.66668H31.6667V26.6667Z" fill="#D2232A"/>
<path d="M11.6666 11.6667H28.3333V15H11.6666V11.6667ZM11.6666 18.3333H23.3333V21.6667H11.6666V18.3333Z" fill="#D2232A"/>
</svg>
