<svg width="27" height="22" viewBox="0 0 27 22" fill="none" xmlns="http://www.w3.org/2000/svg">
<path d="M22.5625 0.5H4.1875C3.14321 0.5 2.14169 0.914843 1.40327 1.65327C0.664843 2.39169 0.25 3.39321 0.25 4.4375V17.5625C0.25 18.6068 0.664843 19.6083 1.40327 20.3467C2.14169 21.0852 3.14321 21.5 4.1875 21.5H22.5625C23.6068 21.5 24.6083 21.0852 25.3467 20.3467C26.0852 19.6083 26.5 18.6068 26.5 17.5625V4.4375C26.5 3.39321 26.0852 2.39169 25.3467 1.65327C24.6083 0.914843 23.6068 0.5 22.5625 0.5ZM22.5625 3.125L14.0312 8.99188C13.8317 9.10707 13.6054 9.16772 13.375 9.16772C13.1446 9.16772 12.9183 9.10707 12.7188 8.99188L4.1875 3.125H22.5625Z" fill="#D2232A"/>
</svg>
