<svg width="36" height="36" viewBox="0 0 36 36" fill="none" xmlns="http://www.w3.org/2000/svg">
<path fill-rule="evenodd" clip-rule="evenodd" d="M7.5 1.5C4.18629 1.5 1.5 4.18629 1.5 7.5V28.5C1.5 31.8137 4.18629 34.5 7.5 34.5H28.5C31.8137 34.5 34.5 31.8137 34.5 28.5V7.5C34.5 4.18629 31.8137 1.5 28.5 1.5H7.5ZM8.25 4.5C6.17893 4.5 4.5 6.17893 4.5 8.25V27.75C4.5 29.8211 6.17893 31.5 8.25 31.5H27.75C29.8211 31.5 31.5 29.8211 31.5 27.75V8.25C31.5 6.17893 29.8211 4.5 27.75 4.5H8.25Z" fill="white"/>
<path d="M19.3467 27V18.8027H22.0122L22.4084 15.5932H19.3467V13.5489C19.3467 12.6227 19.5954 11.9886 20.8766 11.9886H22.5V9.12719C21.7101 9.03937 20.9162 8.99696 20.1218 9.00017C17.7657 9.00017 16.1481 10.4924 16.1481 13.2318V15.5872H13.5V18.7967H16.1539V27H19.3467Z" fill="white"/>
</svg>
