<svg width="40" height="40" viewBox="0 0 40 40" fill="none" xmlns="http://www.w3.org/2000/svg">
<path fill-rule="evenodd" clip-rule="evenodd" d="M8.33335 1.66669C4.65146 1.66669 1.66669 4.65146 1.66669 8.33335V31.6667C1.66669 35.3486 4.65146 38.3334 8.33335 38.3334H31.6667C35.3486 38.3334 38.3334 35.3486 38.3334 31.6667V8.33335C38.3334 4.65146 35.3486 1.66669 31.6667 1.66669H8.33335ZM9.16669 5.00002C6.8655 5.00002 5.00002 6.8655 5.00002 9.16669V30.8334C5.00002 33.1345 6.8655 35 9.16669 35H30.8334C33.1345 35 35 33.1345 35 30.8334V9.16669C35 6.8655 33.1345 5.00002 30.8334 5.00002H9.16669Z" fill="#888888"/>
<path d="M21.4964 30V20.8919H24.458L24.8982 17.3258H21.4964V15.0543C21.4964 14.0253 21.7727 13.3207 23.1962 13.3207H25V10.1413C24.1224 10.0437 23.2402 9.99662 22.3575 10.0002C19.7397 10.0002 17.9424 11.6582 17.9424 14.702V17.3191H15V20.8852H17.9488V30H21.4964Z" fill="#888888"/>
</svg>
