<svg width="18" height="16" viewBox="0 0 18 16" fill="none" xmlns="http://www.w3.org/2000/svg">
<path opacity="0.5" d="M11.9715 0.787084L11.9728 0.786708C14.1366 0.155385 15.9446 1.24887 16.5512 2.49374L17.0003 2.27494L16.5514 2.49412C17.4444 4.32273 17.1186 6.43182 15.3643 8.84468L15.3634 8.84593C13.9736 10.7698 11.9671 12.7041 9.0247 14.9891L9.02388 14.9898C9.01802 14.9944 9.01081 14.9968 9.00338 14.9968C8.99595 14.9968 8.98873 14.9944 8.98288 14.9898L8.98215 14.9892C6.03622 12.7003 4.03324 10.7492 2.64204 8.84412C0.882693 6.43145 0.557156 4.32256 1.45 2.49412L1.45019 2.49374C2.05587 1.25073 3.85817 0.164723 6.03048 0.787233C7.06586 1.08643 7.9692 1.72786 8.59296 2.60677L9.00071 3.1813L9.40846 2.60677C10.0323 1.72771 10.9359 1.08621 11.9715 0.787084Z" fill="white" stroke="#D2232A"/>
</svg>
