<svg viewBox="0 0 30 27" fill="none" xmlns="http://www.w3.org/2000/svg">
<path opacity="0.5" d="M27.8831 4.34266L27.8833 4.34303C29.4447 7.54054 28.8416 11.1892 25.8748 15.2696L25.8739 15.2709C23.5313 18.5139 20.1594 21.7602 15.2437 25.5776L15.2428 25.5783C15.1745 25.6316 15.0903 25.6605 15.0037 25.6605C14.917 25.6605 14.8328 25.6316 14.7645 25.5783L14.7638 25.5777C9.84096 21.7528 6.4762 18.479 4.13212 15.269C1.15677 11.1888 0.553899 7.54036 2.11519 4.34303L2.11538 4.34266C3.19751 2.12186 6.36872 0.242955 10.1411 1.32417C11.9393 1.84373 13.5082 2.9577 14.5915 4.48413L14.9992 5.05867L15.407 4.48413C16.4904 2.95753 18.0595 1.84348 19.858 1.324L19.8593 1.32363C23.6196 0.226525 26.8001 2.12001 27.8831 4.34266Z" fill="white" stroke="#888888"/>
</svg>
