<svg width="30" height="27" viewBox="0 0 30 27" fill="none" xmlns="http://www.w3.org/2000/svg">
<path d="M28.3326 4.12364C27.1415 1.67919 23.7103 -0.320805 19.7192 0.843639C17.8121 1.39452 16.1481 2.57589 14.9992 4.19475C13.8503 2.57589 12.1864 1.39452 10.2792 0.843639C6.27923 -0.303028 2.85701 1.67919 1.6659 4.12364C-0.00521374 7.54586 0.68812 11.3948 3.72812 15.5636C6.11034 18.8259 9.51479 22.1325 14.457 25.9725C14.6132 26.0943 14.8056 26.1605 15.0037 26.1605C15.2018 26.1605 15.3942 26.0943 15.5503 25.9725C20.4837 22.1414 23.897 18.8614 26.2792 15.5636C29.3103 11.3948 30.0037 7.54586 28.3326 4.12364Z" fill="#FF3C43"/>
</svg>
