<svg width="20" height="20" viewBox="0 0 20 20" fill="none" xmlns="http://www.w3.org/2000/svg">
<path d="M16.5597 17.5C8.56188 17.5112 2.49157 11.3687 2.50001 3.44031C2.50001 2.92187 2.92001 2.5 3.43751 2.5H5.91251C6.37657 2.5 6.77126 2.84125 6.83969 3.30062C7.00292 4.40224 7.32337 5.47473 7.79126 6.48531L7.88782 6.69343C7.95268 6.83349 7.96664 6.99179 7.92727 7.14103C7.88791 7.29027 7.7977 7.42109 7.67219 7.51093C6.90532 8.05843 6.61282 9.15999 7.21001 10.0187C7.95907 11.0969 8.90313 12.0419 9.98125 12.7909C10.8409 13.3872 11.9425 13.0947 12.4891 12.3287C12.5788 12.2029 12.7097 12.1123 12.8592 12.0728C13.0087 12.0332 13.1672 12.0472 13.3075 12.1122L13.5147 12.2078C14.5253 12.6766 15.5978 12.9972 16.6994 13.1603C17.1588 13.2287 17.5 13.6234 17.5 14.0884V16.5625C17.5 16.6857 17.4757 16.8077 17.4285 16.9215C17.3814 17.0353 17.3122 17.1387 17.2251 17.2257C17.1379 17.3128 17.0345 17.3818 16.9206 17.4289C16.8068 17.4759 16.6848 17.5001 16.5616 17.5H16.5597Z" fill="#D2232A"/>
</svg>

