<svg width="40" height="40" viewBox="0 0 40 40" fill="none" xmlns="http://www.w3.org/2000/svg">
<path fill-rule="evenodd" clip-rule="evenodd" d="M8.33335 1.66669C4.65146 1.66669 1.66669 4.65146 1.66669 8.33335V31.6667C1.66669 35.3486 4.65146 38.3334 8.33335 38.3334H31.6667C35.3486 38.3334 38.3334 35.3486 38.3334 31.6667V8.33335C38.3334 4.65146 35.3486 1.66669 31.6667 1.66669H8.33335ZM9.16669 5.00002C6.8655 5.00002 5.00002 6.8655 5.00002 9.16669V30.8334C5.00002 33.1345 6.8655 35 9.16669 35H30.8334C33.1345 35 35 33.1345 35 30.8334V9.16669C35 6.8655 33.1345 5.00002 30.8334 5.00002H9.16669Z" fill="#888888"/>
<path fill-rule="evenodd" clip-rule="evenodd" d="M20 25C22.7614 25 25 22.7614 25 20C25 17.2386 22.7614 15 20 15C17.2386 15 15 17.2386 15 20C15 22.7614 17.2386 25 20 25ZM20 28.3334C24.6024 28.3334 28.3333 24.6024 28.3333 20C28.3333 15.3976 24.6024 11.6667 20 11.6667C15.3976 11.6667 11.6667 15.3976 11.6667 20C11.6667 24.6024 15.3976 28.3334 20 28.3334Z" fill="#888888"/>
<ellipse cx="29.1667" cy="10.8333" rx="2.5" ry="2.5" fill="#888888"/>
</svg>
