<svg width="36" height="36" viewBox="0 0 36 36" fill="none" xmlns="http://www.w3.org/2000/svg">
<path fill-rule="evenodd" clip-rule="evenodd" d="M7.5 1.5C4.18629 1.5 1.5 4.18629 1.5 7.5V28.5C1.5 31.8137 4.18629 34.5 7.5 34.5H28.5C31.8137 34.5 34.5 31.8137 34.5 28.5V7.5C34.5 4.18629 31.8137 1.5 28.5 1.5H7.5ZM8.25 4.5C6.17893 4.5 4.5 6.17893 4.5 8.25V27.75C4.5 29.8211 6.17893 31.5 8.25 31.5H27.75C29.8211 31.5 31.5 29.8211 31.5 27.75V8.25C31.5 6.17893 29.8211 4.5 27.75 4.5H8.25Z" fill="white"/>
<path fill-rule="evenodd" clip-rule="evenodd" d="M18 22.5C20.4853 22.5 22.5 20.4853 22.5 18C22.5 15.5147 20.4853 13.5 18 13.5C15.5147 13.5 13.5 15.5147 13.5 18C13.5 20.4853 15.5147 22.5 18 22.5ZM18 25.5C22.1421 25.5 25.5 22.1421 25.5 18C25.5 13.8579 22.1421 10.5 18 10.5C13.8579 10.5 10.5 13.8579 10.5 18C10.5 22.1421 13.8579 25.5 18 25.5Z" fill="white"/>
<circle cx="26.25" cy="9.75" r="2.25" fill="white"/>
</svg>
