<svg width="22" height="26" viewBox="0 0 22 26" fill="none" xmlns="http://www.w3.org/2000/svg">
<path d="M11 0.410767C16.7696 0.410767 21.4464 5.08755 21.4464 10.8572C21.4464 15.2715 18.3446 20.0822 12.2214 25.3408C11.8809 25.6333 11.4468 25.7939 10.998 25.7935C10.5491 25.7931 10.1153 25.6317 9.77534 25.3386L9.37035 24.9872C3.5182 19.8658 0.553558 15.1729 0.553558 10.8572C0.553558 5.08755 5.23034 0.410767 11 0.410767ZM11 6.83934C9.93439 6.83934 8.91243 7.26265 8.15893 8.01614C7.40544 8.76964 6.98213 9.79159 6.98213 10.8572C6.98213 11.9228 7.40544 12.9448 8.15893 13.6982C8.91243 14.4517 9.93439 14.8751 11 14.8751C12.0656 14.8751 13.0875 14.4517 13.841 13.6982C14.5945 12.9448 15.0178 11.9228 15.0178 10.8572C15.0178 9.79159 14.5945 8.76964 13.841 8.01614C13.0875 7.26265 12.0656 6.83934 11 6.83934Z" fill="#D2232A"/>
</svg>
