<svg width="24" height="24" viewBox="0 0 24 24" fill="none" xmlns="http://www.w3.org/2000/svg">
<path fill-rule="evenodd" clip-rule="evenodd" d="M4.30769 10.4615C4.30769 7.06286 7.06286 4.30769 10.4615 4.30769C13.8602 4.30769 16.6154 7.06286 16.6154 10.4615C16.6154 13.8602 13.8602 16.6154 10.4615 16.6154C7.06286 16.6154 4.30769 13.8602 4.30769 10.4615ZM10.4615 2C5.78836 2 2 5.78836 2 10.4615C2 15.1347 5.78836 18.9231 10.4615 18.9231C12.3821 18.9231 14.1532 18.2832 15.5733 17.2051L20.0303 21.662C20.4809 22.1127 21.2114 22.1127 21.662 21.662C22.1127 21.2114 22.1127 20.4809 21.662 20.0303L17.2051 15.5733C18.2832 14.1532 18.9231 12.3821 18.9231 10.4615C18.9231 5.78836 15.1347 2 10.4615 2Z" fill="#333333"/>
</svg>
