<svg width="40" height="40" viewBox="0 0 40 40" fill="none" xmlns="http://www.w3.org/2000/svg">
<path fill-rule="evenodd" clip-rule="evenodd" d="M8.33332 1.66669C4.65142 1.66669 1.66666 4.65146 1.66666 8.33335V31.6667C1.66666 35.3486 4.65142 38.3334 8.33332 38.3334H31.6667C35.3486 38.3334 38.3333 35.3486 38.3333 31.6667V8.33335C38.3333 4.65146 35.3486 1.66669 31.6667 1.66669H8.33332ZM9.16666 5.00002C6.86547 5.00002 4.99999 6.8655 4.99999 9.16669V30.8334C4.99999 33.1345 6.86547 35 9.16666 35H30.8333C33.1345 35 35 33.1345 35 30.8334V9.16669C35 6.8655 33.1345 5.00002 30.8333 5.00002H9.16666Z" fill="#888888"/>
<path d="M25.7692 18.396C26.9658 19.1089 26.9658 20.8911 25.7692 21.6039L17.6923 26.4158C16.4957 27.1286 15 26.2375 15 24.8118L15 15.1882C15 13.7624 16.4957 12.8713 17.6923 13.5842L25.7692 18.396Z" fill="#888888"/>
</svg>
