<svg width="36" height="36" viewBox="0 0 36 36" fill="none" xmlns="http://www.w3.org/2000/svg">
<path fill-rule="evenodd" clip-rule="evenodd" d="M7.5 1.5C4.18629 1.5 1.5 4.18629 1.5 7.5V28.5C1.5 31.8137 4.18629 34.5 7.5 34.5H28.5C31.8137 34.5 34.5 31.8137 34.5 28.5V7.5C34.5 4.18629 31.8137 1.5 28.5 1.5H7.5ZM8.25 4.5C6.17893 4.5 4.5 6.17893 4.5 8.25V27.75C4.5 29.8211 6.17893 31.5 8.25 31.5H27.75C29.8211 31.5 31.5 29.8211 31.5 27.75V8.25C31.5 6.17893 29.8211 4.5 27.75 4.5H8.25Z" fill="white"/>
<path d="M23.1923 16.5565C24.2692 17.198 24.2692 18.802 23.1923 19.4435L15.9231 23.7742C14.8462 24.4158 13.5 23.6138 13.5 22.3306L13.5 13.6694C13.5 12.3862 14.8462 11.5842 15.9231 12.2258L23.1923 16.5565Z" fill="white"/>
</svg>
