<svg width="40" height="40" viewBox="0 0 40 40" fill="none" xmlns="http://www.w3.org/2000/svg">
<path fill-rule="evenodd" clip-rule="evenodd" d="M8.33335 1.66669C4.65146 1.66669 1.66669 4.65146 1.66669 8.33335V31.6667C1.66669 35.3486 4.65146 38.3334 8.33335 38.3334H31.6667C35.3486 38.3334 38.3334 35.3486 38.3334 31.6667V8.33335C38.3334 4.65146 35.3486 1.66669 31.6667 1.66669H8.33335ZM9.16669 5.00002C6.8655 5.00002 5.00002 6.8655 5.00002 9.16669V30.8334C5.00002 33.1345 6.8655 35 9.16669 35H30.8334C33.1345 35 35 33.1345 35 30.8334V9.16669C35 6.8655 33.1345 5.00002 30.8334 5.00002H9.16669Z" fill="#888888"/>
<path fill-rule="evenodd" clip-rule="evenodd" d="M13.695 15.3093C13.695 14.218 14.5926 13.3333 15.6997 13.3333H23.9544C25.1336 13.3333 25.6855 13.3833 26.077 14.147C26.4685 14.9106 26.1949 15.658 25.5683 16.4815L19.667 24.3756H24.6619C25.7691 24.3756 26.6666 25.2603 26.6666 26.3516C26.6666 27.4429 25.7691 28.3276 24.6619 28.3276H15.6997C14.9435 28.3276 14.0488 28.4438 13.5771 27.6302C13.1054 26.8165 13.3412 26.1191 14.0858 25.1794L19.9871 17.2853H15.6997C14.5926 17.2853 13.695 16.4006 13.695 15.3093Z" fill="#888888"/>
</svg>
