<svg width="36" height="36" viewBox="0 0 36 36" fill="none" xmlns="http://www.w3.org/2000/svg">
<path fill-rule="evenodd" clip-rule="evenodd" d="M7.5 1.5C4.18629 1.5 1.5 4.18629 1.5 7.5V28.5C1.5 31.8137 4.18629 34.5 7.5 34.5H28.5C31.8137 34.5 34.5 31.8137 34.5 28.5V7.5C34.5 4.18629 31.8137 1.5 28.5 1.5H7.5ZM8.25 4.5C6.17893 4.5 4.5 6.17893 4.5 8.25V27.75C4.5 29.8211 6.17893 31.5 8.25 31.5H27.75C29.8211 31.5 31.5 29.8211 31.5 27.75V8.25C31.5 6.17893 29.8211 4.5 27.75 4.5H8.25Z" fill="white"/>
<path fill-rule="evenodd" clip-rule="evenodd" d="M11.25 12.1667C11.25 11.2462 12.0055 10.5 12.9375 10.5H23.0625C23.7215 10.5 24.3202 10.8789 24.5956 11.4702C24.871 12.0616 24.7726 12.7571 24.3437 13.2513L16.6065 22.1667H23.0625C23.9945 22.1667 24.75 22.9129 24.75 23.8333C24.75 24.7538 23.9945 25.5 23.0625 25.5H12.9375C12.2785 25.5 11.6798 25.1211 11.4044 24.5298C11.129 23.9384 11.2274 23.2429 11.6563 22.7487L19.3935 13.8333H12.9375C12.0055 13.8333 11.25 13.0871 11.25 12.1667Z" fill="white"/>
</svg>
